<svg width="74" height="74" viewBox="0 0 74 74" fill="none" xmlns="http://www.w3.org/2000/svg">
<path d="M37 0.5C46.6804 0.5 55.9645 4.34535 62.8096 11.1904C69.6546 18.0355 73.5 27.3196 73.5 37C73.5 46.6804 69.6546 55.9645 62.8096 62.8096C55.9645 69.6546 46.6804 73.5 37 73.5C27.3196 73.5 18.0355 69.6546 11.1904 62.8096C4.34535 55.9645 0.5 46.6804 0.5 37C0.5 27.3196 4.34535 18.0355 11.1904 11.1904C18.0355 4.34535 27.3196 0.5 37 0.5ZM37 4.125C28.281 4.125 19.9192 7.58865 13.7539 13.7539C7.58865 19.9192 4.125 28.281 4.125 37C4.125 45.719 7.58865 54.0808 13.7539 60.2461C19.9192 66.4114 28.281 69.875 37 69.875C45.719 69.875 54.0808 66.4114 60.2461 60.2461C66.4114 54.0808 69.875 45.719 69.875 37C69.875 28.281 66.4114 19.9192 60.2461 13.7539C54.0808 7.58865 45.719 4.125 37 4.125Z" fill="#D9D9D9" stroke="#757575"/>
<path d="M37 46.2559C37.596 46.2559 38.1855 46.3641 38.7344 46.5742C39.2833 46.7844 39.78 47.0917 40.1963 47.4766C40.6125 47.8613 40.9402 48.3161 41.1631 48.8135C41.3859 49.3108 41.5 49.8423 41.5 50.3779C41.5 51.4579 41.0364 52.5027 40.1963 53.2793C39.3548 54.0571 38.2056 54.5 37 54.5C35.7944 54.5 34.6452 54.0571 33.8037 53.2793C32.9636 52.5027 32.5 51.4579 32.5 50.3779L32.5049 50.1777C32.5297 49.7102 32.6419 49.2488 32.8369 48.8135C33.0598 48.3161 33.3875 47.8613 33.8037 47.4766C34.22 47.0917 34.7167 46.7844 35.2656 46.5742C35.8145 46.3641 36.404 46.2559 37 46.2559ZM36.9902 18.5C37.56 18.5 38.1224 18.6109 38.6406 18.8242C39.1588 19.0376 39.6199 19.348 39.9951 19.7334C40.3703 20.1187 40.6512 20.5705 40.8223 21.0576C40.9932 21.5445 41.0511 22.058 40.9932 22.5654V22.5684L39.2432 38.7783L39.2422 38.7861C39.1959 39.2863 38.9476 39.7615 38.5332 40.1133C38.1178 40.4658 37.5674 40.666 36.9902 40.666C36.4131 40.666 35.8627 40.4657 35.4473 40.1133C35.0329 39.7615 34.7845 39.2863 34.7383 38.7861L34.7373 38.7783L32.9873 22.5684L32.9863 22.5654L32.9707 22.375C32.9453 21.93 33.0086 21.4837 33.1582 21.0576C33.3292 20.5706 33.6093 20.1187 33.9844 19.7334C34.3596 19.348 34.8216 19.0376 35.3398 18.8242C35.858 18.6109 36.4205 18.5 36.9902 18.5Z" fill="#D9D9D9" stroke="#757575"/>
</svg>
